<?xml version="1.0" encoding="UTF-8"?>
<svg width="82px" height="64px" viewBox="0 0 82 64" version="1.1" xmlns="http://www.w3.org/2000/svg" xmlns:xlink="http://www.w3.org/1999/xlink">
    <!-- Generator: Sketch 50 (54983) - http://www.bohemiancoding.com/sketch -->
    <title>Artboard</title>
    <desc>Created with Sketch.</desc>
    <defs></defs>
    <g id="Artboard" stroke="none" stroke-width="1" fill="none" fill-rule="evenodd">
        <g id="webkul-cookie-sprite">
            <path d="M30,8 C30,8 23.557,22.3 38,21 C38,21 35.8,38.405 53,30 C53,30 53.577,44.755 65.24,38.48 C61.8387064,53.9425977 47.7901953,64.7043751 31.975332,63.9621987 C16.1604688,63.2200224 3.18156081,51.1898743 1.24331626,35.4766972 C-0.694928282,19.7635202 8.9715421,4.94002979 24.132,0.377 C24.487,3.084 26,5.92 30,8 Z" id="Base" fill="#00CCFF"></path>
            <path d="M62.343,39.688 C58.8912539,50.1605059 50.3618809,58.1664264 39.692021,60.9488753 C29.0221612,63.7313241 17.6693518,60.9102099 9.543,53.457 C2.15156599,45.3995726 -0.688655144,34.1633257 1.98619891,23.5614114 C4.66105296,12.959497 12.4918059,4.41552786 22.821,0.829 C23.4945921,2.3311463 24.5406424,3.63638573 25.86,4.621 C26.4108082,5.34644423 27.0539012,5.99693293 27.773,6.556 C27.007,8.544 24.808,15.356 29.393,18.013 C30.356,19.736 32.309,20.998 35.911,21.071 C35.946,23.554 36.497,27.598 39.463,29.387 C41.133,32.053 44.535,33.641 51.378,30.739 C51.844,32.925 52.878,35.839 55.133,37.228 C56.494,39.284 58.717,40.717 62.343,39.688 Z" id="Over" fill="#2149F3"></path>
            <path d="M27.127,61.7 C20.5604368,60.8158319 14.4230835,57.9387731 9.543,53.457 C-2.10671888,40.7646619 -1.80596642,21.1806272 10.228,8.852 L27.127,61.7 Z" id="Shadow" stroke="#FFFFFF" fill="#FFFFFF" opacity="0.1" stroke-linecap="round"></path>
            <path d="M12.5,33 C13.8807119,33 15,34.1192881 15,35.5 C15,36.8807119 13.8807119,38 12.5,38 C11.1192881,38 10,36.8807119 10,35.5 C10,34.1192881 11.1192881,33 12.5,33 Z M28.5,51 C29.8807119,51 31,52.1192881 31,53.5 C31,54.8807119 29.8807119,56 28.5,56 C27.1192881,56 26,54.8807119 26,53.5 C26,52.1192881 27.1192881,51 28.5,51 Z M28.5,33 C29.8807119,33 31,34.1192881 31,35.5 C31,36.8807119 29.8807119,38 28.5,38 C27.1192881,38 26,36.8807119 26,35.5 C26,34.1192881 27.1192881,33 28.5,33 Z M18.5,14 C19.8807119,14 21,15.1192881 21,16.5 C21,17.8807119 19.8807119,19 18.5,19 C17.1192881,19 16,17.8807119 16,16.5 C16,15.1192881 17.1192881,14 18.5,14 Z M49.5,42 C50.8807119,42 52,43.1192881 52,44.5 C52,45.8807119 50.8807119,47 49.5,47 C48.1192881,47 47,45.8807119 47,44.5 C47,43.1192881 48.1192881,42 49.5,42 Z" id="Base-2" fill="#00CCFF"></path>
            <path d="M12.5,33 C13.1632636,32.9989941 13.7995637,33.2624396 14.268,33.732 L11,37 L10.193,36.462 C9.87135221,35.69048 9.95657153,34.8092549 10.4200969,34.1136655 C10.8836222,33.4180761 11.664117,33.0001672 12.5,33 Z M16.732,18.268 C15.7555606,17.2915606 15.7555606,15.7084395 16.7320001,14.7320001 C17.7084395,13.7555606 19.2915606,13.7555606 20.268,14.732 L16.732,18.268 Z M26.732,55.268 C25.7555606,54.2915605 25.7555607,52.7084395 26.7320001,51.7320001 C27.7084395,50.7555607 29.2915605,50.7555606 30.268,51.732 L26.732,55.268 Z M26.732,37.268 C25.7555606,36.2915606 25.7555606,34.7084395 26.732,33.732 C27.7084395,32.7555606 29.2915606,32.7555606 30.268,33.732 L26.732,37.268 Z M49.5,42 C50.1632636,41.9989941 50.7995637,42.2624396 51.268,42.732 L48,46 L47.193,45.462 C46.8713522,44.69048 46.9565715,43.8092549 47.4200969,43.1136655 C47.8836222,42.4180761 48.664117,42.0001672 49.5,42 Z" id="White" fill="#FFFFFF"></path>
            <path d="M74,0 C78.418278,2.705415e-16 82,3.581722 82,8 C82,12.418278 78.418278,16 74,16 C69.581722,16 66,12.418278 66,8 C66,3.581722 69.581722,8.11624501e-16 74,0 Z M77.738,10.243 L76.238,11.743 L74,9.5 L71.757,11.743 L70.257,10.243 L72.5,8 L70.262,5.757 L71.762,4.257 L74,6.5 L76.243,4.257 L77.743,5.757 L75.5,8 L77.738,10.243 Z" id="Ellipse" fill="#CCCCCC"></path>
        </g>
    </g>
</svg>